<svg xmlns="http://www.w3.org/2000/svg" xmlns:xlink="http://www.w3.org/1999/xlink" width="167" height="97.56" viewBox="0 0 167 97.56"><defs><linearGradient id="a" x1="-136.12" y1="261.46" x2="-134.95" y2="261.46" gradientTransform="translate(-10940.45 -35612.3) rotate(-45) scale(128.69)" gradientUnits="userSpaceOnUse"><stop offset="0" stop-color="#0c6cb3"/><stop offset="0.29" stop-color="#1e84c4"/><stop offset="0.89" stop-color="#4cc0ef"/><stop offset="1" stop-color="#4cc0ef"/></linearGradient><linearGradient id="b" x1="-136.12" y1="261.27" x2="-134.95" y2="261.27" xlink:href="#a"/><linearGradient id="c" x1="-136.12" y1="261.01" x2="-134.95" y2="261.01" xlink:href="#a"/><linearGradient id="d" x1="-136.12" y1="261.5" x2="-134.95" y2="261.5" xlink:href="#a"/><linearGradient id="e" x1="-136.12" y1="261.72" x2="-134.95" y2="261.72" xlink:href="#a"/><linearGradient id="f" x1="-136.12" y1="261.93" x2="-134.95" y2="261.93" xlink:href="#a"/><linearGradient id="g" x1="-136.12" y1="261.57" x2="-134.95" y2="261.57" xlink:href="#a"/><linearGradient id="h" x1="-136.12" y1="261.42" x2="-134.95" y2="261.42" xlink:href="#a"/></defs><title>Amazon Music logo - Brandlogos.net</title><path d="M539.5,505.43a8.87,8.87,0,0,1-4.88,1.31,30.27,30.27,0,0,1-9.19-1.31,9.52,9.52,0,0,0-1.69-.38c-.56,0-.75.38-.75,1.13v1.88a2.71,2.71,0,0,0,.38,1.31,2.88,2.88,0,0,0,1.13.75A25,25,0,0,0,534.62,512a14.7,14.7,0,0,0,9.38-2.81,8.83,8.83,0,0,0,3.56-7.5,8.56,8.56,0,0,0-1.69-5.44,13.23,13.23,0,0,0-5.63-3.56L535,490.61c-2.06-.75-3.56-1.5-4.13-2.25a3.54,3.54,0,0,1-1.13-2.81c0-2.81,2.06-4.31,6.38-4.31a22.68,22.68,0,0,1,7.13,1.13c.75.19,1.31.38,1.5.38.56,0,.94-.38.94-1.13v-1.88a2.71,2.71,0,0,0-.38-1.31,1.72,1.72,0,0,0-1.13-.75,26.7,26.7,0,0,0-8.44-1.5,14.48,14.48,0,0,0-8.82,2.63,8.36,8.36,0,0,0-3.38,6.94c0,4.31,2.44,7.5,7.32,9.38l5.63,2.06a11,11,0,0,1,3.75,2.06,3.27,3.27,0,0,1,.94,2.63A4.12,4.12,0,0,1,539.5,505.43Z" transform="translate(-428.5 -463.22)" style="fill:url(#a)"/><path d="M510,478.42v25a17.65,17.65,0,0,1-9.57,3.19,5.54,5.54,0,0,1-4.5-1.69c-.94-1.13-1.31-2.81-1.31-5.25v-21.2c0-.94-.38-1.31-1.31-1.31h-3.94c-.94,0-1.31.38-1.31,1.31v23.26c0,3.19.75,5.82,2.44,7.5a9.94,9.94,0,0,0,7.32,2.63,21.59,21.59,0,0,0,12.76-4.5l.38,2.25a.87.87,0,0,0,.56.94c.19.19.56.19,1.13.19h2.81c.94,0,1.31-.38,1.31-1.31v-31c0-.94-.38-1.31-1.31-1.31h-3.94C510.42,477.11,510,477.67,510,478.42Z" transform="translate(-428.5 -463.22)" style="fill:url(#b)"/><path d="M474.4,510.87h3.94c.94,0,1.31-.38,1.31-1.31V486.11c0-3.19-.75-5.63-2.44-7.32a9.49,9.49,0,0,0-7.13-2.63A22.08,22.08,0,0,0,457,480.86c-1.5-3.19-4.31-4.69-8.44-4.69s-8.25,1.5-12.38,4.31l-.38-2.06a.87.87,0,0,0-.56-.94,1.41,1.41,0,0,0-.94-.19h-3c-.94,0-1.31.38-1.31,1.31v31.14c0,.94.38,1.31,1.31,1.31h3.94c.94,0,1.31-.38,1.31-1.31V484.42a19.12,19.12,0,0,1,9.76-3q2.81,0,3.94,1.69a8.41,8.41,0,0,1,1.31,4.88v21.57c0,.94.38,1.31,1.31,1.31h3.94c.94,0,1.31-.38,1.31-1.31V484.42a18.41,18.41,0,0,1,9.76-3q2.81,0,3.94,1.69a8.41,8.41,0,0,1,1.31,4.88v21.57C473.09,510.5,473.46,510.87,474.4,510.87Z" transform="translate(-428.5 -463.22)" style="fill:url(#c)"/><path d="M576.65,535.83a165.52,165.52,0,0,1-63,12.94c-30,0-59.1-8.25-82.55-21.95a2.67,2.67,0,0,0-1.13-.38c-1.31,0-2.06,1.5-.75,2.81a122.29,122.29,0,0,0,82.55,31.52c22.89,0,49.34-7.13,67.54-20.64C582.46,537.89,579.83,534.51,576.65,535.83Z" transform="translate(-428.5 -463.22)" style="fill:url(#d)"/><path d="M576.08,484.61c1.69-1.88,4.31-2.81,8.07-2.81a17.35,17.35,0,0,1,5.44.75,2.79,2.79,0,0,0,1.13.19c.56,0,.94-.38.94-1.31v-1.88a2.19,2.19,0,0,0-.38-1.31,4.09,4.09,0,0,0-.94-.75,33,33,0,0,0-7.13-1.13c-5.25,0-9.19,1.5-12.19,4.69-2.81,3-4.31,7.5-4.31,13.13s1.31,9.94,4.13,12.94,6.75,4.5,12,4.5a18.51,18.51,0,0,0,7.5-1.31,1.72,1.72,0,0,0,1.13-.75c.19-.19.19-.75.19-1.31v-1.88c0-.94-.38-1.31-.94-1.31a2,2,0,0,0-.94.19,23.42,23.42,0,0,1-6,.94q-5.35,0-7.88-2.81c-1.69-1.88-2.44-4.88-2.44-8.82v-.94C573.64,489.49,574.39,486.49,576.08,484.61Z" transform="translate(-428.5 -463.22)" style="fill:url(#e)"/><path d="M584.52,553.46c9.76-8.25,12.38-25.33,10.32-28-.94-1.13-5.44-2.25-11.07-2.25-6,0-13.13,1.31-18.57,5.07-1.69,1.13-1.31,2.63.38,2.44,5.82-.75,18.95-2.25,21.39.75,2.25,3-2.63,15.38-4.88,20.82C581.52,554,582.84,554.59,584.52,553.46Z" transform="translate(-428.5 -463.22)" style="fill:url(#f)"/><path d="M558.45,477.11h-3.94c-.94,0-1.31.38-1.31,1.31v31.14c0,.94.38,1.31,1.31,1.31h3.94c.94,0,1.31-.38,1.31-1.31V478.42A1.19,1.19,0,0,0,558.45,477.11Z" transform="translate(-428.5 -463.22)" style="fill:url(#g)"/><path d="M559.57,464.35a4.41,4.41,0,0,0-3.19-1.13,4,4,0,0,0-3,1.13,3.82,3.82,0,0,0-1.13,2.81,3.54,3.54,0,0,0,1.13,2.81,4.57,4.57,0,0,0,6,0,3.82,3.82,0,0,0,1.13-2.81A3.45,3.45,0,0,0,559.57,464.35Z" transform="translate(-428.5 -463.22)" style="fill:url(#h)"/></svg>